<svg xmlns="http://www.w3.org/2000/svg" xmlns:xlink="http://www.w3.org/1999/xlink" viewBox="0 0 233.33 233.33"><defs><style>.cls-1{fill:#2b2c7d;}.cls-2{fill:url(#New_Gradient_Swatch_5);}.cls-3{fill:url(#New_Gradient_Swatch_5-2);}.cls-4{fill:url(#linear-gradient);}.cls-5{fill:url(#linear-gradient-2);}.cls-6{fill:url(#New_Gradient_Swatch_5-3);}.cls-7{fill:#179b48;}.cls-8{fill:#005ca1;}.cls-9{fill:#231f20;}</style><linearGradient id="New_Gradient_Swatch_5" x1="85.47" y1="72.1" x2="143.79" y2="173.13" gradientUnits="userSpaceOnUse"><stop offset="0" stop-color="#00589e"/><stop offset="0.24" stop-color="#015aa0"/><stop offset="0.38" stop-color="#0662a9"/><stop offset="0.49" stop-color="#0f6fb6"/><stop offset="0.49" stop-color="#0f6fb7"/><stop offset="0.6" stop-color="#2189c7"/><stop offset="0.77" stop-color="#37aadc"/><stop offset="0.91" stop-color="#45bfe9"/><stop offset="1" stop-color="#4ac6ee"/></linearGradient><linearGradient id="New_Gradient_Swatch_5-2" x1="108.65" y1="93.93" x2="150.78" y2="166.91" xlink:href="#New_Gradient_Swatch_5"/><linearGradient id="linear-gradient" x1="52.74" y1="81.19" x2="159.07" y2="187.52" gradientUnits="userSpaceOnUse"><stop offset="0" stop-color="#189046"/><stop offset="0.43" stop-color="#1b9948"/><stop offset="0.55" stop-color="#2ca047"/><stop offset="0.8" stop-color="#59b345"/><stop offset="0.98" stop-color="#7fc343"/></linearGradient><linearGradient id="linear-gradient-2" x1="59.64" y1="121.15" x2="128.81" y2="190.31" xlink:href="#linear-gradient"/><linearGradient id="New_Gradient_Swatch_5-3" x1="85.35" y1="38.78" x2="144.85" y2="141.83" xlink:href="#New_Gradient_Swatch_5"/></defs><title>round logo no number</title><g id="Layer_2" data-name="Layer 2"><g id="round_logo" data-name="round logo"><path id="Outer_Ringer" data-name="Outer Ringer" class="cls-1" d="M116.66,0A116.67,116.67,0,1,0,233.33,116.66,116.66,116.66,0,0,0,116.66,0Zm-.47,217.25A100.59,100.59,0,1,1,216.78,116.66,100.59,100.59,0,0,1,116.19,217.25Z"/><g id="Globe"><path class="cls-2" d="M170.7,158.5c37-38.38-71.77-75.89-129.56-45.33C58.92,89.46,148.78,84.07,181,120.88,181,120.88,200.28,140.17,170.7,158.5Z"/><path class="cls-3" d="M137.66,115.66s-27.16-10-56.9-5.62c0,0,43.56-1.45,72,21,0,0,16.56,11.42,14.95,26C182.69,137.32,160.14,122.42,137.66,115.66Z"/><path class="cls-4" d="M144.87,178.67c23.8-18.51-32.41-66.52-87.66-55.08,19.43-15.13,75.77-3,95.43,19.71C152.64,143.3,177.23,168,144.87,178.67Z"/><path class="cls-5" d="M140.64,178.47c.49-.31,3.06-16.71-22.71-32.47,0,0-28.56-18.74-67.79-15.36,0,0,6,31.12,30.17,45.05C80.31,175.69,113.3,196.24,140.64,178.47Z"/><path class="cls-6" d="M57.21,91.58s65.91-25.07,121.2,18.33c0,0-2.57-47.9-54.65-55.94C123.76,54,76.82,47.22,57.21,91.58Z"/></g><g id="top_art" data-name="top art"><path class="cls-7" d="M49.51,67.61l-2.8,5.12,2.94,1.61,2.8-5.12c1.14.7,2.13,1.88,1.28,3.41l-1.66,3L55,77.27l2.8-5.11,2.49,1.36-4.19,7.63-11-6A2.4,2.4,0,0,1,44,71.71l3-5.46Z"/><path class="cls-7" d="M60.32,55.32a4.81,4.81,0,0,0,1,6,4.88,4.88,0,0,0,8.16-2,7.38,7.38,0,0,0,.26-2.7h2.7c.12,2.74-.38,4.55-2.14,6.43-4.68,5-11.47,1.67-13-3.15-1-3.07.1-5.53,2-7.62s6.33-4.2,6.88.42C64.1,51.87,61.47,53.41,60.32,55.32Z"/><path class="cls-7" d="M82.84,37.63a7.55,7.55,0,0,1,4.72,3.67,7.44,7.44,0,0,1,.81,5.85,7.73,7.73,0,0,1-9.51,5.41,7.67,7.67,0,0,1-4.64-3.64,7.42,7.42,0,0,1-1-2.84c-.18-3.09,4.52-5.16,5.47-1.73-1.59-.58-3.32,1.11-1.83,3.47A4.58,4.58,0,0,0,80.18,50a4.71,4.71,0,0,0,3.27-.59,4.51,4.51,0,0,0,2.21-2.94,4.88,4.88,0,0,0-.57-3.8,5,5,0,0,0-3-2.4,4.68,4.68,0,0,0-3.71.47A4.85,4.85,0,0,0,77,41.86a3.74,3.74,0,0,0-3.79,2,8,8,0,0,1,.94-2.68A7.52,7.52,0,0,1,77,38.35,7.29,7.29,0,0,1,82.84,37.63Z"/><path class="cls-8" d="M108.79,28.43c6.89-.74,7,9.77,1.09,10.4-3,.32-3.27-1.92-2.6-3.11.36.56,1.83.49,2.45.32,2.25-.67,2.2-5.16-1-4.82l-2.39.26,1.29,12.08-2.8.29-1.3-12.22c-.17-1.55.36-2.68,2-2.86Z"/><path class="cls-8" d="M128.7,41.22l-.32,2.69L120.51,43q.76-6.28,1.52-12.58c.17-1.4,1.37-2.11,3.06-1.89q-.74,6.06-1.46,12.12Z"/><path class="cls-8" d="M147,34.19l-.15,15.88L144.14,49l.06-3.25c-1.57-.62-3.95-1.79-4.07-.21-1.7-1.32-.93-3,.34-3.47s2.59.29,3.76.76l0-5.49-7.93,8.56-2.73-1.08L143,34.63C144.08,33.46,145.33,33.15,147,34.19Z"/><path class="cls-8" d="M162.19,42.37l.37.29-.94,11.7,6-7.75,2.22,1.72-9.14,11.78-2.14-1.66.93-11.66-6,7.73-2.23-1.73,7.77-10A2.11,2.11,0,0,1,162.19,42.37Z"/><path class="cls-8" d="M179.34,63.34l-3.57-4.51-2.59,2.05,3.57,4.51c-1.08.77-2.52,1.21-3.59-.14L171,62.58l-2.59,2L172,69.14l-2.19,1.73-5.33-6.73,9.67-7.66a2.37,2.37,0,0,1,3.55.32l3.81,4.81Z"/><path class="cls-8" d="M190.69,78.41c-1.58.74-3,.22-3.53-.9L186.43,76l-10.94,5.18-1.23-2.6,10.93-5.18-1.41-3,2.54-1.2Z"/></g><g id="bottom_art" data-name="bottom art"><path class="cls-9" d="M72.92,185.05l-6.26,8.53-2.38-1.75,2.4-3.28-2.57-1.89-2.4,3.28-2.39-1.75,6.26-8.54L68,181.4l-2.25,3.08,2.57,1.9,2.26-3.08Z"/><path class="cls-9" d="M83,200.11l-3.46-1.49L78.27,200l-2.89-1.24,8-8.07L86,191.79l-.26,11.41-3-1.28Zm.47-5.85-2.37,2.54,2.15.93Z"/><path class="cls-9" d="M95.72,201.86l1.19-6.38,3,.55-1.18,6.33a1.65,1.65,0,1,0,3.24.6l1.18-6.32,3,.55-1.19,6.38a4.66,4.66,0,0,1-9.14-1.71Z"/><path class="cls-9" d="M121.68,205.5l.06,2.67-6.76.14-.21-10.59,3-.05.16,7.91Z"/><path class="cls-9" d="M129.7,196.55l2.92-.57,2,10.4-2.92.56Z"/><path class="cls-9" d="M150.07,190.24l3.94,9.82-2.25.91-6.07-3.76,2.14,5.33-2.64,1.06-3.94-9.83,2.39-1,5.86,3.63-2.07-5.15Z"/><path class="cls-9" d="M169.37,183.89c2,2.83,1.57,6.16-1.15,8.08a5.56,5.56,0,1,1,.48-8.83l-2.51,1.78a2.58,2.58,0,0,0-2.82.2,2.62,2.62,0,0,0-.54,3.86,2.59,2.59,0,0,0,3.81.76,2.52,2.52,0,0,0,1.19-2.5l-2.16,1.53-1.06-1.5Z"/></g></g></g></svg>