<svg xmlns="http://www.w3.org/2000/svg" xmlns:xlink="http://www.w3.org/1999/xlink" viewBox="0 0 233.33 233.33"><defs><style>.cls-1{fill:#2b2c7d;}.cls-2{fill:url(#New_Gradient_Swatch_5);}.cls-3{fill:url(#New_Gradient_Swatch_5-2);}.cls-4{fill:url(#linear-gradient);}.cls-5{fill:url(#linear-gradient-2);}.cls-6{fill:url(#New_Gradient_Swatch_5-3);}.cls-7{fill:#179b48;}.cls-8{fill:#005ca1;}.cls-9{fill:#231f20;}.cls-10{fill:#fff;}</style><linearGradient id="New_Gradient_Swatch_5" x1="85.47" y1="72.1" x2="143.79" y2="173.13" gradientUnits="userSpaceOnUse"><stop offset="0" stop-color="#00589e"/><stop offset="0.24" stop-color="#015aa0"/><stop offset="0.38" stop-color="#0662a9"/><stop offset="0.49" stop-color="#0f6fb6"/><stop offset="0.49" stop-color="#0f6fb7"/><stop offset="0.6" stop-color="#2189c7"/><stop offset="0.77" stop-color="#37aadc"/><stop offset="0.91" stop-color="#45bfe9"/><stop offset="1" stop-color="#4ac6ee"/></linearGradient><linearGradient id="New_Gradient_Swatch_5-2" x1="108.65" y1="93.93" x2="150.78" y2="166.91" xlink:href="#New_Gradient_Swatch_5"/><linearGradient id="linear-gradient" x1="52.74" y1="81.19" x2="159.07" y2="187.52" gradientUnits="userSpaceOnUse"><stop offset="0" stop-color="#189046"/><stop offset="0.43" stop-color="#1b9948"/><stop offset="0.55" stop-color="#2ca047"/><stop offset="0.8" stop-color="#59b345"/><stop offset="0.98" stop-color="#7fc343"/></linearGradient><linearGradient id="linear-gradient-2" x1="59.64" y1="121.15" x2="128.81" y2="190.31" xlink:href="#linear-gradient"/><linearGradient id="New_Gradient_Swatch_5-3" x1="85.35" y1="38.78" x2="144.85" y2="141.83" xlink:href="#New_Gradient_Swatch_5"/></defs><title>round logo</title><g id="Layer_2" data-name="Layer 2"><g id="round_logo" data-name="round logo"><path id="Outer_Ringer" data-name="Outer Ringer" class="cls-1" d="M116.66,0A116.67,116.67,0,1,0,233.33,116.66,116.66,116.66,0,0,0,116.66,0Zm-.47,217.25A100.59,100.59,0,1,1,216.78,116.66,100.59,100.59,0,0,1,116.19,217.25Z"/><g id="Globe"><path class="cls-2" d="M170.7,158.5c37-38.38-71.77-75.89-129.56-45.33C58.92,89.46,148.78,84.07,181,120.88,181,120.88,200.28,140.17,170.7,158.5Z"/><path class="cls-3" d="M137.66,115.66s-27.16-10-56.9-5.62c0,0,43.56-1.45,72,21,0,0,16.56,11.42,14.95,26C182.69,137.32,160.14,122.42,137.66,115.66Z"/><path class="cls-4" d="M144.87,178.67c23.8-18.51-32.41-66.52-87.66-55.08,19.43-15.13,75.77-3,95.43,19.71C152.64,143.3,177.23,168,144.87,178.67Z"/><path class="cls-5" d="M140.64,178.47c.49-.31,3.06-16.71-22.71-32.47,0,0-28.56-18.74-67.79-15.36,0,0,6,31.12,30.17,45.05C80.31,175.69,113.3,196.24,140.64,178.47Z"/><path class="cls-6" d="M57.21,91.58s65.91-25.07,121.2,18.33c0,0-2.57-47.9-54.65-55.94C123.76,54,76.82,47.22,57.21,91.58Z"/></g><g id="top_art" data-name="top art"><path class="cls-7" d="M49.51,67.61l-2.8,5.12,2.94,1.61,2.8-5.12c1.14.7,2.13,1.88,1.28,3.41l-1.66,3L55,77.27l2.8-5.11,2.49,1.36-4.19,7.63-11-6A2.4,2.4,0,0,1,44,71.71l3-5.46Z"/><path class="cls-7" d="M60.32,55.32a4.81,4.81,0,0,0,1,6,4.88,4.88,0,0,0,8.16-2,7.38,7.38,0,0,0,.26-2.7h2.7c.12,2.74-.38,4.55-2.14,6.43-4.68,5-11.47,1.67-13-3.15-1-3.07.1-5.53,2-7.62s6.33-4.2,6.88.42C64.1,51.87,61.47,53.41,60.32,55.32Z"/><path class="cls-7" d="M82.84,37.63a7.55,7.55,0,0,1,4.72,3.67,7.44,7.44,0,0,1,.81,5.85,7.73,7.73,0,0,1-9.51,5.41,7.67,7.67,0,0,1-4.64-3.64,7.42,7.42,0,0,1-1-2.84c-.18-3.09,4.52-5.16,5.47-1.73-1.59-.58-3.32,1.11-1.83,3.47A4.58,4.58,0,0,0,80.18,50a4.71,4.71,0,0,0,3.27-.59,4.51,4.51,0,0,0,2.21-2.94,4.88,4.88,0,0,0-.57-3.8,5,5,0,0,0-3-2.4,4.68,4.68,0,0,0-3.71.47A4.85,4.85,0,0,0,77,41.86a3.74,3.74,0,0,0-3.79,2,8,8,0,0,1,.94-2.68A7.52,7.52,0,0,1,77,38.35,7.29,7.29,0,0,1,82.84,37.63Z"/><path class="cls-8" d="M108.79,28.43c6.89-.74,7,9.77,1.09,10.4-3,.32-3.27-1.92-2.6-3.11.36.56,1.83.49,2.45.32,2.25-.67,2.2-5.16-1-4.82l-2.39.26,1.29,12.08-2.8.29-1.3-12.22c-.17-1.55.36-2.68,2-2.86Z"/><path class="cls-8" d="M128.7,41.22l-.32,2.69L120.51,43q.76-6.28,1.52-12.58c.17-1.4,1.37-2.11,3.06-1.89q-.74,6.06-1.46,12.12Z"/><path class="cls-8" d="M147,34.19l-.15,15.88L144.14,49l.06-3.25c-1.57-.62-3.95-1.79-4.07-.21-1.7-1.32-.93-3,.34-3.47s2.59.29,3.76.76l0-5.49-7.93,8.56-2.73-1.08L143,34.63C144.08,33.46,145.33,33.15,147,34.19Z"/><path class="cls-8" d="M162.19,42.37l.37.29-.94,11.7,6-7.75,2.22,1.72-9.14,11.78-2.14-1.66.93-11.66-6,7.73-2.23-1.73,7.77-10A2.11,2.11,0,0,1,162.19,42.37Z"/><path class="cls-8" d="M179.34,63.34l-3.57-4.51-2.59,2.05,3.57,4.51c-1.08.77-2.52,1.21-3.59-.14L171,62.58l-2.59,2L172,69.14l-2.19,1.73-5.33-6.73,9.67-7.66a2.37,2.37,0,0,1,3.55.32l3.81,4.81Z"/><path class="cls-8" d="M190.69,78.41c-1.58.74-3,.22-3.53-.9L186.43,76l-10.94,5.18-1.23-2.6,10.93-5.18-1.41-3,2.54-1.2Z"/></g><g id="bottom_art" data-name="bottom art"><path class="cls-9" d="M72.92,185.05l-6.26,8.53-2.38-1.75,2.4-3.28-2.57-1.89-2.4,3.28-2.39-1.75,6.26-8.54L68,181.4l-2.25,3.08,2.57,1.9,2.26-3.08Z"/><path class="cls-9" d="M83,200.11l-3.46-1.49L78.27,200l-2.89-1.24,8-8.07L86,191.79l-.26,11.41-3-1.28Zm.47-5.85-2.37,2.54,2.15.93Z"/><path class="cls-9" d="M95.72,201.86l1.19-6.38,3,.55-1.18,6.33a1.65,1.65,0,1,0,3.24.6l1.18-6.32,3,.55-1.19,6.38a4.66,4.66,0,0,1-9.14-1.71Z"/><path class="cls-9" d="M121.68,205.5l.06,2.67-6.76.14-.21-10.59,3-.05.16,7.91Z"/><path class="cls-9" d="M129.7,196.55l2.92-.57,2,10.4-2.92.56Z"/><path class="cls-9" d="M150.07,190.24l3.94,9.82-2.25.91-6.07-3.76,2.14,5.33-2.64,1.06-3.94-9.83,2.39-1,5.86,3.63-2.07-5.15Z"/><path class="cls-9" d="M169.37,183.89c2,2.83,1.57,6.16-1.15,8.08a5.56,5.56,0,1,1,.48-8.83l-2.51,1.78a2.58,2.58,0,0,0-2.82.2,2.62,2.62,0,0,0-.54,3.86,2.59,2.59,0,0,0,3.81.76,2.52,2.52,0,0,0,1.19-2.5l-2.16,1.53-1.06-1.5Z"/></g><path class="cls-10" d="M83.32,219.58l-.24.74c-.15.45-.21,1,.23,1.1s.63-.19.77-.62v0l.62.2v0c-.17.52-.56,1.29-1.56,1s-1-1-.66-1.92l.55-1.68c.22-.69.71-1.37,1.64-1.07s.92,1,.66,1.82c-.08.24-.25.76-.33,1Zm1.23-.17.19-.56c.14-.43.2-.86-.25-1s-.66.17-.82.66l-.18.57Z"/><path class="cls-10" d="M88.32,221.87l0,.06c-.22.79-.62,1.4-1.56,1.13s-.93-.93-.67-1.86l.51-1.78c.23-.78.69-1.32,1.56-1.07s.9,1,.73,1.61l-.06.19-.63-.18,0-.16c.12-.42.16-.8-.25-.91s-.57.12-.73.66l-.56,2c-.12.41-.17.87.24,1s.56-.11.72-.69l0-.14Z"/><path class="cls-10" d="M92.47,221,92,222.9c-.25,1-.83,1.33-1.58,1.15s-1.08-.74-.84-1.72l.5-2a1.22,1.22,0,0,1,1.56-1.06C92.4,219.48,92.69,220.09,92.47,221Zm-1.75-.46-.5,2c-.13.5,0,.87.35,1s.61-.1.76-.69l.5-2c.11-.45,0-.82-.36-.92S90.84,220,90.72,220.51Z"/><path class="cls-10" d="M93.91,224.38l-.41,2-.65-.14,1-4.89c.14-.63.22-1.05.28-1.34l.62.13c0,.1,0,.28-.08.5a.85.85,0,0,1,1-.4c.64.14.86.64.67,1.56l-.42,2c-.21,1-.71,1.4-1.33,1.27A.77.77,0,0,1,93.91,224.38Zm1.33-.77.42-2c.12-.56,0-.82-.34-.88-.49-.11-.71.27-.84.88l-.32,1.52c-.11.55-.15,1.1.36,1.2S95.13,224.16,95.24,223.61Z"/><path class="cls-10" d="M97.15,225.42,98.3,219l.65.12-1.15,6.43Z"/><path class="cls-10" d="M101.67,225.32c0,.32-.09.68-.1.82l-.61-.09a2.4,2.4,0,0,1,0-.39.78.78,0,0,1-.84.34c-.68-.1-.86-.75-.76-1.48l0-.08a1.34,1.34,0,0,1,1.72-1.22l.2,0,.11-.74c.07-.43,0-.71-.34-.77s-.5.21-.56.58l0,.13-.65-.1,0-.12c.1-.66.44-1.18,1.32-1s1,.67.9,1.37Zm-.43-1.54-.22,0c-.54-.08-.89.09-1,.77v.08c-.07.42,0,.78.38.84s.64-.26.74-1Z"/><path class="cls-10" d="M103.6,223.06c.11-.95.13-1.2.15-1.44l.63.07a4.75,4.75,0,0,1,0,.48.84.84,0,0,1,.92-.45c.52.05.91.4.81,1.27l-.41,3.64-.66-.07.39-3.52c0-.46-.07-.71-.42-.74s-.65.12-.75,1l-.35,3.11-.66-.07Z"/><path class="cls-10" d="M108.06,224.59l-.06.78c0,.47,0,1,.49,1s.56-.32.6-.78v0l.65,0v0c0,.55-.23,1.39-1.29,1.31s-1.17-.75-1.09-1.71l.13-1.77c.05-.72.37-1.5,1.34-1.43s1.14.77,1.07,1.61l-.08,1.07Zm1.16-.46,0-.59c0-.45,0-.89-.49-.92s-.59.32-.63.84l0,.59Z"/><path class="cls-10" d="M111,222.27l.54,0,.05-1.17.66,0,0,1.17.67,0,0,.59-.67,0-.14,3.2c0,.24,0,.48.32.49h.3l0,.51a1.51,1.51,0,0,1-.52.05c-.47,0-.78-.23-.75-1l.15-3.32-.55,0Z"/><path class="cls-10" d="M114.72,220.64l0,2.19a.88.88,0,0,1,.88-.49c.71,0,.92.55.91,1.24l-.06,3.61h-.67l.06-3.45c0-.39,0-.78-.49-.79s-.64.38-.65,1.07l0,3.15H114l.1-6.53Z"/><path class="cls-10" d="M120.25,226.3c0,.33,0,.68,0,.82l-.62,0a3.77,3.77,0,0,1-.06-.39.76.76,0,0,1-.77.48c-.69,0-1-.59-1-1.32v-.09a1.33,1.33,0,0,1,1.48-1.49h.21l0-.76c0-.43-.09-.7-.46-.69s-.47.29-.46.67v.12l-.66,0v-.12c0-.67.23-1.24,1.12-1.26s1.1.5,1.12,1.2Zm-.69-1.44h-.23c-.54,0-.85.25-.84.94v.08c0,.42.15.76.53.75s.58-.36.56-1.07Z"/><path class="cls-10" d="M124.32,225.63c0,.62.06,1.06.08,1.28l-.63,0a3.83,3.83,0,0,1-.06-.49.8.8,0,0,1-.82.62c-.39,0-.93-.1-1-1.16l-.21-3.62.67,0,.2,3.44c0,.56.2.77.55.75s.58-.23.53-1.14l-.18-3.12.66,0Z"/><path class="cls-10" d="M126.07,226.78l-.59-6.51.67-.06.58,6.51Z"/><path class="cls-10" d="M127.65,220.06l.66-.07.11,1-.66.07Zm.19,1.75.66-.07.53,4.74-.66.07Z"/><path class="cls-10" d="M130.23,223c-.13-.94-.17-1.2-.21-1.43l.63-.09c0,.1.06.27.09.47a.85.85,0,0,1,.79-.67c.51-.07,1,.16,1.09,1l.51,3.63-.65.09-.5-3.5c-.06-.45-.25-.66-.59-.62s-.6.29-.47,1.18l.43,3.1-.65.09Z"/><path class="cls-10" d="M137.11,225.15c.17,1,.21,1.78-1,2a1.06,1.06,0,0,1-1.37-1v0l.66-.12v0a.54.54,0,0,0,.64.51c.49-.09.53-.47.41-1.15l-.11-.6a.77.77,0,0,1-.71.63c-.71.13-1.08-.34-1.25-1.26l-.34-1.88c-.15-.83.11-1.46.84-1.59a.72.72,0,0,1,.85.34c0-.13,0-.31,0-.41l.57-.1c0,.26.11.68.21,1.23Zm-2.36-2.91.32,1.79c.11.6.32.87.67.81.54-.1.53-.65.41-1.28l-.25-1.39c-.09-.54-.23-1-.73-.87S134.65,221.7,134.75,222.24Z"/><path class="cls-10" d="M138.59,225l-.27-1.26.66-.13.26,1.26Z"/><path class="cls-10" d="M142.58,222.51l0,.06c.19.8.14,1.52-.81,1.75s-1.27-.36-1.5-1.3l-.42-1.8c-.19-.78-.05-1.48.83-1.69s1.28.43,1.42,1.05l0,.18-.65.16,0-.16c-.1-.42-.25-.77-.66-.67s-.44.39-.31.94l.47,2c.1.42.29.84.7.74s.43-.37.29-.95l0-.15Z"/><path class="cls-10" d="M145.78,219.68l.53,1.92c.27,1-.07,1.57-.81,1.77s-1.31-.11-1.58-1.09l-.54-2a1.22,1.22,0,0,1,.84-1.69C145,218.41,145.54,218.8,145.78,219.68Zm-1.75.46.54,2c.14.5.4.78.78.67s.48-.39.32-1l-.54-2c-.13-.45-.37-.74-.77-.63S143.89,219.64,144,220.14Z"/><path class="cls-10" d="M147.17,219.3c-.27-.82-.35-1.09-.44-1.3l.61-.2a4.09,4.09,0,0,1,.16.42.84.84,0,0,1,.61-.75.69.69,0,0,1,.88.29.91.91,0,0,1,.66-.79c.45-.15.92-.08,1.21.79l1.15,3.53-.64.2-1.1-3.39c-.12-.36-.28-.6-.63-.49s-.4.55-.24,1l1,3.15-.64.21-1.09-3.36c-.16-.49-.34-.62-.65-.52s-.38.55-.21,1.07l1,3.12-.63.2Z"/><path class="cls-10" d="M85.28,13.81a.44.44,0,0,0,.57.24c.47-.14.37-.74.25-1.22a1.21,1.21,0,0,1-.81.56,1.45,1.45,0,0,1-1.91-1,1.7,1.7,0,0,1,1.39-2.14c1.39-.39,2.18.47,2.51,1.66s.34,2.66-1.21,3.09A1.61,1.61,0,0,1,84,14.18Zm-.56-1.91c.11.38.36.59.7.49s.43-.36.32-.77-.29-.61-.69-.5S84.61,11.51,84.72,11.9Z"/><path class="cls-10" d="M90.86,13.65l-.73-3.25a3.64,3.64,0,0,1-.68.23l-.2-.89a1.93,1.93,0,0,0,1-.82l1-.22,1,4.63Z"/><path class="cls-10" d="M96.63,8.87a.42.42,0,0,0-.53-.3c-.46.08-.52.53-.44,1.12a1.35,1.35,0,0,1,.93-.51,1.46,1.46,0,0,1,1.75,1.28,1.74,1.74,0,0,1-1.58,2.09c-1.42.25-2.13-.66-2.37-2s0-2.58,1.58-2.84c1.23-.22,1.79.44,1.92,1ZM97,10.81c-.08-.41-.23-.71-.66-.64s-.48.33-.4.79.26.74.65.67S97.05,11.25,97,10.81Z"/><path class="cls-10" d="M102.73,9.15l.14,1.09-2.11.26-.13-1.09Z"/><path class="cls-10" d="M106.66,10a.47.47,0,0,0,.52.34c.49,0,.51-.64.49-1.14a1.25,1.25,0,0,1-.91.39,1.45,1.45,0,0,1-1.67-1.39,1.69,1.69,0,0,1,1.79-1.83c1.44-.11,2.05.89,2.14,2.12s-.19,2.68-1.8,2.8a1.62,1.62,0,0,1-1.92-1.19Zm-.16-2c0,.39.23.65.58.62s.5-.27.47-.69-.16-.66-.58-.63S106.47,7.57,106.5,8Z"/><path class="cls-10" d="M112.88,9.65a.45.45,0,0,0,.49.37c.49,0,.55-.62.56-1.12a1.24,1.24,0,0,1-.93.35,1.46,1.46,0,0,1-1.59-1.49A1.68,1.68,0,0,1,113.29,6c1.45,0,2,1,2,2.24s-.34,2.66-2,2.69a1.61,1.61,0,0,1-1.84-1.3Zm-.06-2c0,.39.2.66.55.66s.51-.25.51-.67-.13-.66-.54-.66S112.81,7.25,112.82,7.65Z"/><path class="cls-10" d="M119.09,9.68a.45.45,0,0,0,.47.4c.5,0,.59-.59.62-1.09a1.18,1.18,0,0,1-.94.29,1.45,1.45,0,0,1-1.51-1.57,1.69,1.69,0,0,1,2-1.61c1.44.05,1.94,1.12,1.89,2.35s-.49,2.64-2.1,2.58c-1.29,0-1.72-.82-1.77-1.4Zm.06-2c0,.4.16.67.51.69s.53-.22.54-.64-.09-.67-.5-.69S119.16,7.28,119.15,7.68Z"/><path class="cls-10" d="M126.2,9l-.09,1.09L124,9.86l.09-1.09Z"/><path class="cls-10" d="M129.86,10.57a.45.45,0,0,0,.44.44c.48.07.63-.52.71-1a1.17,1.17,0,0,1-1,.19,1.44,1.44,0,0,1-1.34-1.71,1.69,1.69,0,0,1,2.12-1.41c1.43.2,1.81,1.3,1.65,2.52s-.75,2.58-2.35,2.36c-1.27-.17-1.62-1-1.62-1.56Zm.25-2c-.05.39.1.69.45.73s.54-.16.6-.58,0-.67-.44-.73S130.17,8.2,130.11,8.59Z"/><path class="cls-10" d="M136,11.56a.45.45,0,0,0,.4.47c.49.1.67-.48.78-1a1.27,1.27,0,0,1-1,.14A1.45,1.45,0,0,1,135,9.41a1.69,1.69,0,0,1,2.2-1.28c1.42.27,1.74,1.4,1.51,2.61s-.9,2.53-2.48,2.22c-1.26-.25-1.57-1.08-1.53-1.66Zm.36-2c-.07.39.06.69.4.76s.56-.13.64-.55,0-.67-.39-.75S136.46,9.21,136.38,9.6Z"/><path class="cls-10" d="M142.07,12.9a.46.46,0,0,0,.38.49c.48.12.69-.45.83-.93a1.25,1.25,0,0,1-1,.09,1.45,1.45,0,0,1-1.14-1.86,1.69,1.69,0,0,1,2.27-1.16c1.4.36,1.66,1.5,1.35,2.7s-1,2.47-2.6,2.07c-1.24-.32-1.5-1.16-1.43-1.74Zm.48-1.94c-.1.38,0,.69.35.78s.56-.1.67-.51.05-.67-.35-.78S142.65,10.58,142.55,11Z"/><path class="cls-10" d="M148.08,14.59a.45.45,0,0,0,.35.51c.47.15.71-.41.88-.88a1.2,1.2,0,0,1-1,0,1.46,1.46,0,0,1-1-1.92,1.69,1.69,0,0,1,2.34-1c1.37.44,1.57,1.6,1.2,2.77s-1.18,2.42-2.72,1.93a1.62,1.62,0,0,1-1.33-1.82Zm.59-1.91c-.12.38,0,.69.31.8s.56-.07.69-.47.09-.67-.3-.8S148.79,12.3,148.67,12.68Z"/></g></g></svg>