<svg xmlns="http://www.w3.org/2000/svg" viewBox="0 0 368.81 92.11"><defs><style>.cls-1{fill:#179b48;}.cls-2{fill:#036ab1;}.cls-3{font-size:26.7px;fill:#231f20;font-family:Mont-HeavyDEMO, Mont;letter-spacing:0.25em;}.cls-4{letter-spacing:0.22em;}.cls-5{letter-spacing:0.25em;}</style></defs><title>main logo</title><g id="Layer_2" data-name="Layer 2"><g id="main_logo" data-name="main logo"><path class="cls-1" d="M137.66,33c-12.91-14.76-48.93-12.6-56.06-3.09,23.17-12.25,66.76,2.78,51.94,18.17C145.4,40.76,137.66,33,137.66,33Z"/><path class="cls-2" d="M131.38,46.76c.65-5.86-6-10.44-6-10.44-11.41-9-28.87-8.44-28.87-8.44a52.16,52.16,0,0,1,22.81,2.26C128.34,32.85,137.38,38.82,131.38,46.76Z"/><path class="cls-1" d="M88.47,32.85c22.15-4.59,44.69,14.66,35.15,22.08,13-4.3,3.11-14.18,3.11-14.18C118.85,31.66,96.26,26.78,88.47,32.85Z"/><path class="cls-1" d="M91.42,52.84c.07.1.13.21.27.21C91.74,52.81,91.56,52.85,91.42,52.84Z"/><path class="cls-1" d="M133.9,10s0,.07,0,.1l.1,0A.08.08,0,0,0,133.9,10Z"/><path class="cls-2" d="M124.41,54.14c-11,7.12-24.19-1.12-24.19-1.12l-.49-.3h0a.29.29,0,0,0-.07-.08l-.44-.28a1.69,1.69,0,0,1-.39-.22h.06C90.29,46.23,88.13,35,88.13,35a46.39,46.39,0,0,1,27.17,6.16C125.63,47.43,124.6,54,124.41,54.14Z"/><path class="cls-2" d="M138.34,29.82c-22.17-17.4-48.59-7.34-48.59-7.34C97.61,4.69,116.43,7.4,116.43,7.4A29,29,0,0,1,125,10a.84.84,0,0,1,.58.05c.12.36.6.2.79.56l-.14,0C137.65,17.15,138.34,29.82,138.34,29.82Z"/><path class="cls-2" d="M12.45,29.13c3.12,2.66,7.69,2.44,11.49,2.06,9.66-.84,4.79-10.12-3.35-9.66a12,12,0,0,0-11.1,12C9.33,39.25,12.68,45,18.08,45.87a12.83,12.83,0,0,0,11.33-3.73l8,3.88c-4.11,6.16-9.81,8.67-17.11,8.67C-.1,54.69-5.42,31,5.68,19.4c4-4.34,9.82-6,15.44-6C39.91,13.39,44,34.68,28,38.64,17,41.38,9.41,36.66,12.45,29.13Z"/><path class="cls-2" d="M52.54,31.49C51.09,38,54.67,45.56,63.41,45.56A11.44,11.44,0,0,0,73,41.07l7.22,5.25c-3.88,5.48-9.43,8.14-16.65,8.14-22.82,0-27.24-28.67-10.5-38.18a21.58,21.58,0,0,1,13.77-2.51c12.62,1.82,13.38,12.85,8.29,15.29C72.77,20.61,55.2,19.55,52.54,31.49Z"/><path class="cls-1" d="M155.42,18.18c11.41-11.33,30.65-3.57,30.65,15.36,0,12.1-9.28,20.77-19.09,20.47-10.19-.39-11.25-9-9.51-12.25,1.75,2.51,5.4,3.19,8.22,3.19,14,0,14.22-23,0-23-8,0-10.27,8-10.27,15.06V68.08h-9.81V21.83c0-5.25,4.64-8.21,9.81-7.91Z"/><path class="cls-1" d="M201.74,53.24h-9.58V7.76c0-4.87,3.72-7.83,9.58-7.76Z"/><path class="cls-1" d="M238.71,48.91c-11.49,11.41-30.88,3.65-30.88-15.44,0-12.25,9.27-21,19.24-20.61,9.73.38,11.33,9.05,9.51,12.32-1.68-2.51-5.33-3.2-8.22-3.2-14.07,0-14.37,23.2,0,23.2,8.06,0,10.35-8.06,10.35-15.13V13.84h9.88v39.4h-9.88Z"/><path class="cls-1" d="M276.41,13.08a13.91,13.91,0,0,1,10.88,4.11q3.42,3.54,3.42,10.27v26H281c0-5.09.38-22.81-.61-26.46-.84-3.2-3.81-6.51-7.07-6.48s-7.62,1.4-7.61,6.46c-8.41,0-2.24-3.89,0-3V53.47h-9.81V14.07h9.81v4.57C267.36,15.06,272.76,13.31,276.41,13.08Z"/><path class="cls-1" d="M310,28.53c3.12,2.66,7.69,2.43,11.49,2,9.66-.84,4.79-10.12-3.35-9.66a12,12,0,0,0-11.1,12c-.16,5.7,3.19,11.41,8.59,12.32a12.81,12.81,0,0,0,11.33-3.73l8,3.88c-4.11,6.16-9.81,8.67-17.11,8.67-20.39,0-25.71-23.65-14.61-35.29,4-4.34,9.81-6,15.44-6,18.79,0,22.9,21.3,6.85,25.25C314.54,40.77,306.93,36.06,310,28.53Z"/><path class="cls-1" d="M355.68,0V14.15h8.83c0,4-1.22,8.21-6.7,8.21h-2.13V43.89c0,3.19,5.78,2.51,7.23.15,3.88,10-16.81,13.92-16.81,1.07V22.36h-4.87V14.15h4.87V7.76C346.1,2.13,350.74-.07,355.68,0Z"/><text class="cls-3" transform="translate(199.1 83.54)">H<tspan class="cls-4" x="26.27" y="0">A</tspan><tspan class="cls-5" x="52.04" y="0">ULING</tspan></text></g></g></svg>